<mxfile host="Electron" agent="Mozilla/5.0 (Macintosh; Intel Mac OS X 10_15_7) AppleWebKit/537.36 (KHTML, like Gecko) draw.io/24.7.17 Chrome/128.0.6613.36 Electron/32.0.1 Safari/537.36" version="24.7.17">
  <diagram name="Страница — 1" id="KdCG0SkSpLmAyJHWHryo">
    <mxGraphModel dx="-2039" dy="1118" grid="1" gridSize="10" guides="1" tooltips="1" connect="1" arrows="1" fold="1" page="1" pageScale="1" pageWidth="1169" pageHeight="827" math="0" shadow="0">
      <root>
        <mxCell id="0" />
        <mxCell id="1" parent="0" />
        <mxCell id="j9VtVMgmQELDzO4jhdzW-6" value="lib: Library" style="swimlane;fontStyle=0;childLayout=stackLayout;horizontal=1;startSize=26;fillColor=none;horizontalStack=0;resizeParent=1;resizeParentMax=0;resizeLast=0;collapsible=1;marginBottom=0;whiteSpace=wrap;html=1;" vertex="1" parent="1">
          <mxGeometry x="4439" y="336" width="140" height="78" as="geometry" />
        </mxCell>
        <mxCell id="j9VtVMgmQELDzO4jhdzW-7" value="id: 532" style="text;strokeColor=none;fillColor=none;align=left;verticalAlign=top;spacingLeft=4;spacingRight=4;overflow=hidden;rotatable=0;points=[[0,0.5],[1,0.5]];portConstraint=eastwest;whiteSpace=wrap;html=1;" vertex="1" parent="j9VtVMgmQELDzO4jhdzW-6">
          <mxGeometry y="26" width="140" height="26" as="geometry" />
        </mxCell>
        <mxCell id="j9VtVMgmQELDzO4jhdzW-9" value="name: &quot;НИ ТГУ&quot;" style="text;strokeColor=none;fillColor=none;align=left;verticalAlign=top;spacingLeft=4;spacingRight=4;overflow=hidden;rotatable=0;points=[[0,0.5],[1,0.5]];portConstraint=eastwest;whiteSpace=wrap;html=1;" vertex="1" parent="j9VtVMgmQELDzO4jhdzW-6">
          <mxGeometry y="52" width="140" height="26" as="geometry" />
        </mxCell>
        <mxCell id="j9VtVMgmQELDzO4jhdzW-10" value="rr1: Reading Room 1" style="swimlane;fontStyle=0;childLayout=stackLayout;horizontal=1;startSize=26;fillColor=none;horizontalStack=0;resizeParent=1;resizeParentMax=0;resizeLast=0;collapsible=1;marginBottom=0;whiteSpace=wrap;html=1;" vertex="1" parent="1">
          <mxGeometry x="4049" y="91" width="260" height="78" as="geometry" />
        </mxCell>
        <mxCell id="j9VtVMgmQELDzO4jhdzW-11" value="capacity: 34" style="text;strokeColor=none;fillColor=none;align=left;verticalAlign=top;spacingLeft=4;spacingRight=4;overflow=hidden;rotatable=0;points=[[0,0.5],[1,0.5]];portConstraint=eastwest;whiteSpace=wrap;html=1;" vertex="1" parent="j9VtVMgmQELDzO4jhdzW-10">
          <mxGeometry y="26" width="260" height="26" as="geometry" />
        </mxCell>
        <mxCell id="j9VtVMgmQELDzO4jhdzW-12" value="name**: &quot;Зал естественных наук&quot;" style="text;strokeColor=none;fillColor=none;align=left;verticalAlign=top;spacingLeft=4;spacingRight=4;overflow=hidden;rotatable=0;points=[[0,0.5],[1,0.5]];portConstraint=eastwest;whiteSpace=wrap;html=1;" vertex="1" parent="j9VtVMgmQELDzO4jhdzW-10">
          <mxGeometry y="52" width="260" height="26" as="geometry" />
        </mxCell>
        <mxCell id="j9VtVMgmQELDzO4jhdzW-14" value="rr2: Reading Room 2" style="swimlane;fontStyle=0;childLayout=stackLayout;horizontal=1;startSize=26;fillColor=none;horizontalStack=0;resizeParent=1;resizeParentMax=0;resizeLast=0;collapsible=1;marginBottom=0;whiteSpace=wrap;html=1;" vertex="1" parent="1">
          <mxGeometry x="4049" y="336" width="260" height="78" as="geometry" />
        </mxCell>
        <mxCell id="j9VtVMgmQELDzO4jhdzW-15" value="capacity: 62" style="text;strokeColor=none;fillColor=none;align=left;verticalAlign=top;spacingLeft=4;spacingRight=4;overflow=hidden;rotatable=0;points=[[0,0.5],[1,0.5]];portConstraint=eastwest;whiteSpace=wrap;html=1;" vertex="1" parent="j9VtVMgmQELDzO4jhdzW-14">
          <mxGeometry y="26" width="260" height="26" as="geometry" />
        </mxCell>
        <mxCell id="j9VtVMgmQELDzO4jhdzW-16" value="name**: &quot;Зал гуманитарных наук&quot;" style="text;strokeColor=none;fillColor=none;align=left;verticalAlign=top;spacingLeft=4;spacingRight=4;overflow=hidden;rotatable=0;points=[[0,0.5],[1,0.5]];portConstraint=eastwest;whiteSpace=wrap;html=1;" vertex="1" parent="j9VtVMgmQELDzO4jhdzW-14">
          <mxGeometry y="52" width="260" height="26" as="geometry" />
        </mxCell>
        <mxCell id="j9VtVMgmQELDzO4jhdzW-17" value="rr3: Reading Room 3" style="swimlane;fontStyle=0;childLayout=stackLayout;horizontal=1;startSize=26;fillColor=none;horizontalStack=0;resizeParent=1;resizeParentMax=0;resizeLast=0;collapsible=1;marginBottom=0;whiteSpace=wrap;html=1;" vertex="1" parent="1">
          <mxGeometry x="4049" y="610" width="260" height="78" as="geometry" />
        </mxCell>
        <mxCell id="j9VtVMgmQELDzO4jhdzW-18" value="capacity: 104" style="text;strokeColor=none;fillColor=none;align=left;verticalAlign=top;spacingLeft=4;spacingRight=4;overflow=hidden;rotatable=0;points=[[0,0.5],[1,0.5]];portConstraint=eastwest;whiteSpace=wrap;html=1;" vertex="1" parent="j9VtVMgmQELDzO4jhdzW-17">
          <mxGeometry y="26" width="260" height="26" as="geometry" />
        </mxCell>
        <mxCell id="j9VtVMgmQELDzO4jhdzW-19" value="name**: &quot;Зал художественной литературы&quot;" style="text;strokeColor=none;fillColor=none;align=left;verticalAlign=top;spacingLeft=4;spacingRight=4;overflow=hidden;rotatable=0;points=[[0,0.5],[1,0.5]];portConstraint=eastwest;whiteSpace=wrap;html=1;" vertex="1" parent="j9VtVMgmQELDzO4jhdzW-17">
          <mxGeometry y="52" width="260" height="26" as="geometry" />
        </mxCell>
        <mxCell id="j9VtVMgmQELDzO4jhdzW-20" value="rr1_cat1: Category1" style="swimlane;fontStyle=0;childLayout=stackLayout;horizontal=1;startSize=26;fillColor=none;horizontalStack=0;resizeParent=1;resizeParentMax=0;resizeLast=0;collapsible=1;marginBottom=0;whiteSpace=wrap;html=1;" vertex="1" parent="1">
          <mxGeometry x="3699" y="107" width="180" height="52" as="geometry" />
        </mxCell>
        <mxCell id="j9VtVMgmQELDzO4jhdzW-21" value="name: &quot;Органическая химия&quot;" style="text;strokeColor=none;fillColor=none;align=left;verticalAlign=top;spacingLeft=4;spacingRight=4;overflow=hidden;rotatable=0;points=[[0,0.5],[1,0.5]];portConstraint=eastwest;whiteSpace=wrap;html=1;" vertex="1" parent="j9VtVMgmQELDzO4jhdzW-20">
          <mxGeometry y="26" width="180" height="26" as="geometry" />
        </mxCell>
        <mxCell id="j9VtVMgmQELDzO4jhdzW-24" value="rr1_cat2: Category2" style="swimlane;fontStyle=0;childLayout=stackLayout;horizontal=1;startSize=26;fillColor=none;horizontalStack=0;resizeParent=1;resizeParentMax=0;resizeLast=0;collapsible=1;marginBottom=0;whiteSpace=wrap;html=1;" vertex="1" parent="1">
          <mxGeometry x="3699" y="169" width="180" height="52" as="geometry" />
        </mxCell>
        <mxCell id="j9VtVMgmQELDzO4jhdzW-25" value="name: &quot;Нейробиология&quot;" style="text;strokeColor=none;fillColor=none;align=left;verticalAlign=top;spacingLeft=4;spacingRight=4;overflow=hidden;rotatable=0;points=[[0,0.5],[1,0.5]];portConstraint=eastwest;whiteSpace=wrap;html=1;" vertex="1" parent="j9VtVMgmQELDzO4jhdzW-24">
          <mxGeometry y="26" width="180" height="26" as="geometry" />
        </mxCell>
        <mxCell id="j9VtVMgmQELDzO4jhdzW-27" value="rr2_cat1: Category1" style="swimlane;fontStyle=0;childLayout=stackLayout;horizontal=1;startSize=26;fillColor=none;horizontalStack=0;resizeParent=1;resizeParentMax=0;resizeLast=0;collapsible=1;marginBottom=0;whiteSpace=wrap;html=1;" vertex="1" parent="1">
          <mxGeometry x="3699" y="290" width="180" height="52" as="geometry" />
        </mxCell>
        <mxCell id="j9VtVMgmQELDzO4jhdzW-28" value="name: &quot;История Литвы&quot;" style="text;strokeColor=none;fillColor=none;align=left;verticalAlign=top;spacingLeft=4;spacingRight=4;overflow=hidden;rotatable=0;points=[[0,0.5],[1,0.5]];portConstraint=eastwest;whiteSpace=wrap;html=1;" vertex="1" parent="j9VtVMgmQELDzO4jhdzW-27">
          <mxGeometry y="26" width="180" height="26" as="geometry" />
        </mxCell>
        <mxCell id="j9VtVMgmQELDzO4jhdzW-29" value="rr2_cat2: Category2" style="swimlane;fontStyle=0;childLayout=stackLayout;horizontal=1;startSize=26;fillColor=none;horizontalStack=0;resizeParent=1;resizeParentMax=0;resizeLast=0;collapsible=1;marginBottom=0;whiteSpace=wrap;html=1;" vertex="1" parent="1">
          <mxGeometry x="3699" y="349" width="180" height="52" as="geometry" />
        </mxCell>
        <mxCell id="j9VtVMgmQELDzO4jhdzW-30" value="name: &quot;Социология&quot;" style="text;strokeColor=none;fillColor=none;align=left;verticalAlign=top;spacingLeft=4;spacingRight=4;overflow=hidden;rotatable=0;points=[[0,0.5],[1,0.5]];portConstraint=eastwest;whiteSpace=wrap;html=1;" vertex="1" parent="j9VtVMgmQELDzO4jhdzW-29">
          <mxGeometry y="26" width="180" height="26" as="geometry" />
        </mxCell>
        <mxCell id="j9VtVMgmQELDzO4jhdzW-31" value="rr3_cat1: Category1" style="swimlane;fontStyle=0;childLayout=stackLayout;horizontal=1;startSize=26;fillColor=none;horizontalStack=0;resizeParent=1;resizeParentMax=0;resizeLast=0;collapsible=1;marginBottom=0;whiteSpace=wrap;html=1;" vertex="1" parent="1">
          <mxGeometry x="3699" y="530" width="180" height="52" as="geometry" />
        </mxCell>
        <mxCell id="j9VtVMgmQELDzO4jhdzW-32" value="name: &quot;Экзистенциализм&quot;" style="text;strokeColor=none;fillColor=none;align=left;verticalAlign=top;spacingLeft=4;spacingRight=4;overflow=hidden;rotatable=0;points=[[0,0.5],[1,0.5]];portConstraint=eastwest;whiteSpace=wrap;html=1;" vertex="1" parent="j9VtVMgmQELDzO4jhdzW-31">
          <mxGeometry y="26" width="180" height="26" as="geometry" />
        </mxCell>
        <mxCell id="j9VtVMgmQELDzO4jhdzW-33" value="rr3_cat2: Category2" style="swimlane;fontStyle=0;childLayout=stackLayout;horizontal=1;startSize=26;fillColor=none;horizontalStack=0;resizeParent=1;resizeParentMax=0;resizeLast=0;collapsible=1;marginBottom=0;whiteSpace=wrap;html=1;" vertex="1" parent="1">
          <mxGeometry x="3699" y="593" width="180" height="52" as="geometry" />
        </mxCell>
        <mxCell id="j9VtVMgmQELDzO4jhdzW-34" value="name: &quot;XX век&quot;" style="text;strokeColor=none;fillColor=none;align=left;verticalAlign=top;spacingLeft=4;spacingRight=4;overflow=hidden;rotatable=0;points=[[0,0.5],[1,0.5]];portConstraint=eastwest;whiteSpace=wrap;html=1;" vertex="1" parent="j9VtVMgmQELDzO4jhdzW-33">
          <mxGeometry y="26" width="180" height="26" as="geometry" />
        </mxCell>
        <mxCell id="j9VtVMgmQELDzO4jhdzW-39" value="rr1_lst1: LibraryStaff" style="swimlane;fontStyle=0;childLayout=stackLayout;horizontal=1;startSize=26;fillColor=none;horizontalStack=0;resizeParent=1;resizeParentMax=0;resizeLast=0;collapsible=1;marginBottom=0;whiteSpace=wrap;html=1;" vertex="1" parent="1">
          <mxGeometry x="3599" y="40" width="280" height="52" as="geometry" />
        </mxCell>
        <mxCell id="j9VtVMgmQELDzO4jhdzW-40" value="supervisor: &quot;Петрова Анна Сергеевна&quot;" style="text;strokeColor=none;fillColor=none;align=left;verticalAlign=top;spacingLeft=4;spacingRight=4;overflow=hidden;rotatable=0;points=[[0,0.5],[1,0.5]];portConstraint=eastwest;whiteSpace=wrap;html=1;" vertex="1" parent="j9VtVMgmQELDzO4jhdzW-39">
          <mxGeometry y="26" width="280" height="26" as="geometry" />
        </mxCell>
        <mxCell id="j9VtVMgmQELDzO4jhdzW-43" value="rr2_lst1: LibraryStaff" style="swimlane;fontStyle=0;childLayout=stackLayout;horizontal=1;startSize=26;fillColor=none;horizontalStack=0;resizeParent=1;resizeParentMax=0;resizeLast=0;collapsible=1;marginBottom=0;whiteSpace=wrap;html=1;" vertex="1" parent="1">
          <mxGeometry x="3599" y="420" width="280" height="52" as="geometry" />
        </mxCell>
        <mxCell id="j9VtVMgmQELDzO4jhdzW-44" value="supervisor: &quot;Сидоров Алексей Викторович&quot;" style="text;strokeColor=none;fillColor=none;align=left;verticalAlign=top;spacingLeft=4;spacingRight=4;overflow=hidden;rotatable=0;points=[[0,0.5],[1,0.5]];portConstraint=eastwest;whiteSpace=wrap;html=1;" vertex="1" parent="j9VtVMgmQELDzO4jhdzW-43">
          <mxGeometry y="26" width="280" height="26" as="geometry" />
        </mxCell>
        <mxCell id="j9VtVMgmQELDzO4jhdzW-45" value="rr3_lst1: LibraryStaff" style="swimlane;fontStyle=0;childLayout=stackLayout;horizontal=1;startSize=26;fillColor=none;horizontalStack=0;resizeParent=1;resizeParentMax=0;resizeLast=0;collapsible=1;marginBottom=0;whiteSpace=wrap;html=1;" vertex="1" parent="1">
          <mxGeometry x="3599" y="660" width="280" height="52" as="geometry" />
        </mxCell>
        <mxCell id="j9VtVMgmQELDzO4jhdzW-46" value="supervisor: &quot;Кузнецова Мария Анатольевна&quot;" style="text;strokeColor=none;fillColor=none;align=left;verticalAlign=top;spacingLeft=4;spacingRight=4;overflow=hidden;rotatable=0;points=[[0,0.5],[1,0.5]];portConstraint=eastwest;whiteSpace=wrap;html=1;" vertex="1" parent="j9VtVMgmQELDzO4jhdzW-45">
          <mxGeometry y="26" width="280" height="26" as="geometry" />
        </mxCell>
        <mxCell id="j9VtVMgmQELDzO4jhdzW-47" value="rr3_lst2: LibraryStaff" style="swimlane;fontStyle=0;childLayout=stackLayout;horizontal=1;startSize=26;fillColor=none;horizontalStack=0;resizeParent=1;resizeParentMax=0;resizeLast=0;collapsible=1;marginBottom=0;whiteSpace=wrap;html=1;" vertex="1" parent="1">
          <mxGeometry x="3599" y="725" width="280" height="52" as="geometry" />
        </mxCell>
        <mxCell id="j9VtVMgmQELDzO4jhdzW-48" value="supervisor: &quot;Кузнецова Мария Анатольевна&quot;" style="text;strokeColor=none;fillColor=none;align=left;verticalAlign=top;spacingLeft=4;spacingRight=4;overflow=hidden;rotatable=0;points=[[0,0.5],[1,0.5]];portConstraint=eastwest;whiteSpace=wrap;html=1;" vertex="1" parent="j9VtVMgmQELDzO4jhdzW-47">
          <mxGeometry y="26" width="280" height="26" as="geometry" />
        </mxCell>
        <mxCell id="j9VtVMgmQELDzO4jhdzW-50" value="" style="endArrow=diamondThin;endFill=0;endSize=24;html=1;rounded=0;exitX=1;exitY=0.5;exitDx=0;exitDy=0;" edge="1" parent="1" source="j9VtVMgmQELDzO4jhdzW-40">
          <mxGeometry width="160" relative="1" as="geometry">
            <mxPoint x="4069" y="410" as="sourcePoint" />
            <mxPoint x="4049" y="99" as="targetPoint" />
            <Array as="points">
              <mxPoint x="3969" y="80" />
              <mxPoint x="3969" y="100" />
            </Array>
          </mxGeometry>
        </mxCell>
        <mxCell id="j9VtVMgmQELDzO4jhdzW-51" value="" style="endArrow=diamondThin;endFill=0;endSize=24;html=1;rounded=0;entryX=0;entryY=0.5;entryDx=0;entryDy=0;exitX=1;exitY=0.441;exitDx=0;exitDy=0;exitPerimeter=0;" edge="1" parent="1" source="j9VtVMgmQELDzO4jhdzW-20" target="j9VtVMgmQELDzO4jhdzW-11">
          <mxGeometry width="160" relative="1" as="geometry">
            <mxPoint x="3799" y="170" as="sourcePoint" />
            <mxPoint x="3959" y="170" as="targetPoint" />
          </mxGeometry>
        </mxCell>
        <mxCell id="j9VtVMgmQELDzO4jhdzW-52" value="" style="endArrow=diamondThin;endFill=0;endSize=24;html=1;rounded=0;entryX=0;entryY=0.5;entryDx=0;entryDy=0;" edge="1" parent="1" target="j9VtVMgmQELDzO4jhdzW-11">
          <mxGeometry width="160" relative="1" as="geometry">
            <mxPoint x="3879" y="200" as="sourcePoint" />
            <mxPoint x="3959" y="170" as="targetPoint" />
            <Array as="points">
              <mxPoint x="3959" y="200" />
              <mxPoint x="3959" y="130" />
            </Array>
          </mxGeometry>
        </mxCell>
        <mxCell id="j9VtVMgmQELDzO4jhdzW-53" value="" style="endArrow=diamondThin;endFill=0;endSize=24;html=1;rounded=0;exitX=1;exitY=0.5;exitDx=0;exitDy=0;entryX=-0.002;entryY=0.7;entryDx=0;entryDy=0;entryPerimeter=0;" edge="1" parent="1" target="j9VtVMgmQELDzO4jhdzW-15">
          <mxGeometry width="160" relative="1" as="geometry">
            <mxPoint x="3879" y="330" as="sourcePoint" />
            <mxPoint x="4049" y="350" as="targetPoint" />
            <Array as="points">
              <mxPoint x="3969" y="331" />
              <mxPoint x="3969" y="380" />
            </Array>
          </mxGeometry>
        </mxCell>
        <mxCell id="j9VtVMgmQELDzO4jhdzW-54" value="" style="endArrow=diamondThin;endFill=0;endSize=24;html=1;rounded=0;entryX=-0.001;entryY=0.7;entryDx=0;entryDy=0;exitX=0.999;exitY=0.199;exitDx=0;exitDy=0;exitPerimeter=0;entryPerimeter=0;" edge="1" parent="1" source="j9VtVMgmQELDzO4jhdzW-30" target="j9VtVMgmQELDzO4jhdzW-15">
          <mxGeometry width="160" relative="1" as="geometry">
            <mxPoint x="3879" y="381" as="sourcePoint" />
            <mxPoint x="4049" y="381" as="targetPoint" />
            <Array as="points" />
          </mxGeometry>
        </mxCell>
        <mxCell id="j9VtVMgmQELDzO4jhdzW-55" value="" style="endArrow=diamondThin;endFill=0;endSize=24;html=1;rounded=0;entryX=-0.001;entryY=0.453;entryDx=0;entryDy=0;entryPerimeter=0;" edge="1" parent="1" target="j9VtVMgmQELDzO4jhdzW-16">
          <mxGeometry width="160" relative="1" as="geometry">
            <mxPoint x="3879" y="451" as="sourcePoint" />
            <mxPoint x="4049" y="381" as="targetPoint" />
            <Array as="points">
              <mxPoint x="3959" y="451" />
              <mxPoint x="3959" y="400" />
            </Array>
          </mxGeometry>
        </mxCell>
        <mxCell id="j9VtVMgmQELDzO4jhdzW-56" value="" style="endArrow=diamondThin;endFill=0;endSize=24;html=1;rounded=0;exitX=1;exitY=0.5;exitDx=0;exitDy=0;entryX=-0.002;entryY=0.7;entryDx=0;entryDy=0;entryPerimeter=0;" edge="1" parent="1">
          <mxGeometry width="160" relative="1" as="geometry">
            <mxPoint x="3879" y="567" as="sourcePoint" />
            <mxPoint x="4048" y="617" as="targetPoint" />
            <Array as="points">
              <mxPoint x="3969" y="568" />
              <mxPoint x="3969" y="617" />
            </Array>
          </mxGeometry>
        </mxCell>
        <mxCell id="j9VtVMgmQELDzO4jhdzW-57" value="" style="endArrow=diamondThin;endFill=0;endSize=24;html=1;rounded=0;entryX=-0.001;entryY=0.7;entryDx=0;entryDy=0;exitX=0.999;exitY=0.199;exitDx=0;exitDy=0;exitPerimeter=0;entryPerimeter=0;" edge="1" parent="1">
          <mxGeometry width="160" relative="1" as="geometry">
            <mxPoint x="3879" y="617" as="sourcePoint" />
            <mxPoint x="4049" y="617" as="targetPoint" />
            <Array as="points" />
          </mxGeometry>
        </mxCell>
        <mxCell id="j9VtVMgmQELDzO4jhdzW-58" value="" style="endArrow=diamondThin;endFill=0;endSize=24;html=1;rounded=0;entryX=-0.001;entryY=0.453;entryDx=0;entryDy=0;entryPerimeter=0;" edge="1" parent="1">
          <mxGeometry width="160" relative="1" as="geometry">
            <mxPoint x="3879" y="688" as="sourcePoint" />
            <mxPoint x="4049" y="637" as="targetPoint" />
            <Array as="points">
              <mxPoint x="3959" y="688" />
              <mxPoint x="3959" y="637" />
            </Array>
          </mxGeometry>
        </mxCell>
        <mxCell id="j9VtVMgmQELDzO4jhdzW-59" value="" style="endArrow=diamondThin;endFill=0;endSize=24;html=1;rounded=0;entryX=-0.001;entryY=0.453;entryDx=0;entryDy=0;entryPerimeter=0;" edge="1" parent="1">
          <mxGeometry width="160" relative="1" as="geometry">
            <mxPoint x="3879" y="760" as="sourcePoint" />
            <mxPoint x="4049" y="637" as="targetPoint" />
            <Array as="points">
              <mxPoint x="3959" y="760" />
              <mxPoint x="3959" y="637" />
            </Array>
          </mxGeometry>
        </mxCell>
        <mxCell id="j9VtVMgmQELDzO4jhdzW-63" value="" style="endArrow=diamondThin;endFill=1;endSize=24;html=1;rounded=0;exitX=1;exitY=0.5;exitDx=0;exitDy=0;entryX=0;entryY=0.5;entryDx=0;entryDy=0;" edge="1" parent="1" source="j9VtVMgmQELDzO4jhdzW-15" target="j9VtVMgmQELDzO4jhdzW-7">
          <mxGeometry width="160" relative="1" as="geometry">
            <mxPoint x="4269" y="330" as="sourcePoint" />
            <mxPoint x="4429" y="330" as="targetPoint" />
          </mxGeometry>
        </mxCell>
        <mxCell id="j9VtVMgmQELDzO4jhdzW-64" value="" style="endArrow=diamondThin;endFill=1;endSize=24;html=1;rounded=0;exitX=1;exitY=0.5;exitDx=0;exitDy=0;entryX=0;entryY=0.5;entryDx=0;entryDy=0;" edge="1" parent="1" source="j9VtVMgmQELDzO4jhdzW-11">
          <mxGeometry width="160" relative="1" as="geometry">
            <mxPoint x="4309" y="374.5" as="sourcePoint" />
            <mxPoint x="4439" y="374.5" as="targetPoint" />
            <Array as="points">
              <mxPoint x="4359" y="130" />
              <mxPoint x="4359" y="375" />
            </Array>
          </mxGeometry>
        </mxCell>
        <mxCell id="j9VtVMgmQELDzO4jhdzW-65" value="" style="endArrow=diamondThin;endFill=1;endSize=24;html=1;rounded=0;exitX=1;exitY=0.695;exitDx=0;exitDy=0;entryX=0;entryY=0.5;entryDx=0;entryDy=0;exitPerimeter=0;" edge="1" parent="1" source="j9VtVMgmQELDzO4jhdzW-19">
          <mxGeometry width="160" relative="1" as="geometry">
            <mxPoint x="4309" y="130" as="sourcePoint" />
            <mxPoint x="4439" y="374.5" as="targetPoint" />
            <Array as="points">
              <mxPoint x="4359" y="680" />
              <mxPoint x="4359" y="375" />
            </Array>
          </mxGeometry>
        </mxCell>
      </root>
    </mxGraphModel>
  </diagram>
</mxfile>
